<svg width="182" height="79" viewBox="0 0 182 79" fill="none" xmlns="http://www.w3.org/2000/svg">
<path d="M10.752 25.392V70H4.928V25.392H10.752ZM37.766 34.288C42.0327 34.288 45.4887 35.5893 48.134 38.192C50.7793 40.752 52.102 44.464 52.102 49.328V70H46.342V50.16C46.342 46.6613 45.4673 43.9947 43.718 42.16C41.9687 40.2827 39.5793 39.344 36.55 39.344C33.478 39.344 31.0247 40.304 29.19 42.224C27.398 44.144 26.502 46.9387 26.502 50.608V70H20.678V34.928H26.502V39.92C27.654 38.128 29.2113 36.7413 31.174 35.76C33.1793 34.7787 35.3767 34.288 37.766 34.288ZM75.8875 39.728H68.5275V70H62.7035V39.728H58.1595V34.928H62.7035V32.432C62.7035 28.5067 63.7062 25.648 65.7115 23.856C67.7595 22.0213 71.0235 21.104 75.5035 21.104V25.968C72.9435 25.968 71.1302 26.48 70.0635 27.504C69.0395 28.4853 68.5275 30.128 68.5275 32.432V34.928H75.8875V39.728ZM97.974 70.576C94.6887 70.576 91.702 69.8293 89.014 68.336C86.3687 66.8427 84.278 64.7307 82.742 62C81.2487 59.2267 80.502 56.0267 80.502 52.4C80.502 48.816 81.27 45.6587 82.806 42.928C84.3847 40.1547 86.518 38.0427 89.206 36.592C91.894 35.0987 94.902 34.352 98.23 34.352C101.558 34.352 104.566 35.0987 107.254 36.592C109.942 38.0427 112.054 40.1333 113.59 42.864C115.169 45.5947 115.958 48.7733 115.958 52.4C115.958 56.0267 115.147 59.2267 113.526 62C111.947 64.7307 109.793 66.8427 107.062 68.336C104.331 69.8293 101.302 70.576 97.974 70.576ZM97.974 65.456C100.065 65.456 102.027 64.9653 103.862 63.984C105.697 63.0027 107.169 61.5307 108.278 59.568C109.43 57.6053 110.006 55.216 110.006 52.4C110.006 49.584 109.451 47.1947 108.342 45.232C107.233 43.2693 105.782 41.8187 103.99 40.88C102.198 39.8987 100.257 39.408 98.166 39.408C96.0327 39.408 94.07 39.8987 92.278 40.88C90.5287 41.8187 89.1207 43.2693 88.054 45.232C86.9873 47.1947 86.454 49.584 86.454 52.4C86.454 55.2587 86.966 57.6693 87.99 59.632C89.0567 61.5947 90.4647 63.0667 92.214 64.048C93.9633 64.9867 95.8833 65.456 97.974 65.456Z" fill="white"/>
<circle cx="154.75" cy="46.75" r="26.75" fill="#F231A5"/>
<path d="M171.046 46.75L146.602 60.8627L146.602 32.6373L171.046 46.75Z" fill="#06092B"/>
</svg>
